<svg xmlns="http://www.w3.org/2000/svg" xmlns:xlink="http://www.w3.org/1999/xlink" width="108" height="169" viewBox="0 0 108 169">
  <defs>
    <clipPath id="clip-path">
      <rect id="Rectangle_5743" data-name="Rectangle 5743" width="23.75" height="38.529" fill="#333"/>
    </clipPath>
  </defs>
  <g id="contact-icon-in-dotted-circle" transform="translate(-906 -1794.935)">
    <g id="Ellipse_46" data-name="Ellipse 46" transform="translate(906 1794.935)" fill="none" stroke="#333" stroke-linecap="round" stroke-linejoin="round" stroke-width="3" stroke-dasharray="0.05 5">
      <circle cx="54" cy="54" r="54" stroke="none"/>
      <circle cx="54" cy="54" r="52.5" fill="none"/>
    </g>
    <line id="Line_38" data-name="Line 38" y2="56" transform="translate(960 1906.435)" fill="none" stroke="#333" stroke-linecap="round" stroke-width="3" stroke-dasharray="0.1 5"/>
    <g id="Group_4748" data-name="Group 4748" transform="translate(948.125 1829.67)">
      <g id="Group_4747" data-name="Group 4747" transform="translate(0 0)" clip-path="url(#clip-path)">
        <path id="Path_7121" data-name="Path 7121" d="M8.931,3.84a.589.589,0,0,1,.578-.6h3.26a.589.589,0,0,1,.6.578.137.137,0,0,1,0,.023.589.589,0,0,1-.578.6H9.533a.59.59,0,0,1-.6-.578V3.84m13.03,32.575a6.1,6.1,0,0,1-5.005,2.114H16.87a9.97,9.97,0,0,1-4.01-.906H3.71A3.739,3.739,0,0,1,0,33.913V3.71A3.739,3.739,0,0,1,3.71,0H18.725a3.739,3.739,0,0,1,3.71,3.71v23c.259.129.518.3.777.431a.792.792,0,0,1,.3.432c.046.216,1.081,5.7-1.551,8.845m-11.347,0a23.939,23.939,0,0,1-2.8-2.2,31.752,31.752,0,0,1-2.416-2.46H2.848a.591.591,0,0,1-.6-.579V6.472a.59.59,0,0,1,.578-.6H19.545a.591.591,0,0,1,.6.579V25.585c.3.13.647.3.992.475V3.71a2.506,2.506,0,0,0-2.5-2.5H3.621a2.507,2.507,0,0,0-2.5,2.5v30.2a2.507,2.507,0,0,0,2.5,2.5h6.993ZM12.469,16.4a2.21,2.21,0,0,1,2.2,2.2l.345,3.02a4.148,4.148,0,1,0-4.831.3V18.553a2.306,2.306,0,0,1,2.287-2.16ZM15.23,23l.129,1.122c.173.043.389.086.6.13a23.561,23.561,0,0,1,3.021.819V7.076H3.491V30.5H4.4c-.259-.345-.389-.518-.431-.561a.651.651,0,0,1,.043-.776,3.316,3.316,0,0,1,3.624-1.036,5.174,5.174,0,0,1,1.683.906l.912.692.043-6.472a5.363,5.363,0,0,1,2.155-10.268h0a5.35,5.35,0,0,1,5.35,5.349v0A5.51,5.51,0,0,1,15.231,23Zm7.118,5.048A19.508,19.508,0,0,0,15.7,25.413c-.389-.086-.734-.172-1.079-.258a.65.65,0,0,1-.475-.518l-.733-6v-.086a.977.977,0,0,0-.961-.992h-.031a1.027,1.027,0,0,0-.993.948v3.236l-.043,9.1a.652.652,0,0,1-.389.6.594.594,0,0,1-.69-.086L8.5,29.941,8.456,29.9a4.079,4.079,0,0,0-1.253-.69,2.067,2.067,0,0,0-1.942.345c1.294,1.639,6.256,7.593,11.606,7.637h.043a4.939,4.939,0,0,0,4.056-1.683c1.989-2.2,1.514-6.341,1.385-7.463Z" transform="translate(0 0)" fill="#333"/>
        <path id="Path_7122" data-name="Path 7122" d="M8.931,3.84a.589.589,0,0,1,.578-.6h3.26a.589.589,0,0,1,.6.578.137.137,0,0,1,0,.023.589.589,0,0,1-.578.6H9.533a.59.59,0,0,1-.6-.578V3.84m13.03,32.575a6.1,6.1,0,0,1-5.005,2.114H16.87a9.97,9.97,0,0,1-4.01-.906H3.71A3.739,3.739,0,0,1,0,33.913V3.71A3.739,3.739,0,0,1,3.71,0H18.725a3.739,3.739,0,0,1,3.71,3.71v23c.259.129.518.3.777.431a.792.792,0,0,1,.3.432c.046.216,1.081,5.7-1.551,8.845m-11.347,0a23.939,23.939,0,0,1-2.8-2.2,31.752,31.752,0,0,1-2.416-2.46H2.848a.591.591,0,0,1-.6-.579V6.472a.59.59,0,0,1,.578-.6H19.545a.591.591,0,0,1,.6.579V25.585c.3.13.647.3.992.475V3.71a2.506,2.506,0,0,0-2.5-2.5H3.621a2.507,2.507,0,0,0-2.5,2.5v30.2a2.507,2.507,0,0,0,2.5,2.5h6.993ZM14.669,18.6l.345,3.02a4.148,4.148,0,1,0-4.831.3V18.553a2.306,2.306,0,0,1,2.287-2.16M15.23,23l.129,1.122c.173.043.389.086.6.13a23.561,23.561,0,0,1,3.021.819V7.076H3.491V30.5H4.4c-.259-.345-.389-.518-.431-.561a.651.651,0,0,1,.043-.776,3.316,3.316,0,0,1,3.624-1.036,5.174,5.174,0,0,1,1.683.906l.912.692.043-6.472a5.363,5.363,0,0,1,2.155-10.268h0a5.35,5.35,0,0,1,5.35,5.349v0A5.51,5.51,0,0,1,15.231,23Zm7.118,5.048A19.508,19.508,0,0,0,15.7,25.413c-.389-.086-.734-.172-1.079-.258a.65.65,0,0,1-.475-.518l-.733-6v-.086a.977.977,0,0,0-.961-.992h-.031a1.027,1.027,0,0,0-.993.948v3.236l-.043,9.1a.652.652,0,0,1-.389.6.594.594,0,0,1-.69-.086L8.5,29.941,8.456,29.9a4.079,4.079,0,0,0-1.253-.69,2.067,2.067,0,0,0-1.942.345c1.294,1.639,6.256,7.593,11.606,7.637h.043a4.939,4.939,0,0,0,4.056-1.683c1.989-2.2,1.514-6.341,1.385-7.463Z" transform="translate(0 0)" fill="#333"/>
      </g>
    </g>
  </g>
</svg>
