<svg id="Facebook_Icon_link" data-name="Facebook Icon link" xmlns="http://www.w3.org/2000/svg" width="22.61" height="22.61" viewBox="0 0 22.61 22.61">
  <path id="facebook-icon" d="M20.188,2.25H2.423A2.423,2.423,0,0,0,0,4.673V22.438A2.423,2.423,0,0,0,2.423,24.86H9.349V17.173H6.17V13.555h3.18V10.8c0-3.137,1.867-4.869,4.727-4.869a19.262,19.262,0,0,1,2.8.244V9.251H15.3a1.809,1.809,0,0,0-2.04,1.955v2.349h3.471l-.555,3.618H13.261V24.86h6.927a2.423,2.423,0,0,0,2.423-2.423V4.673A2.423,2.423,0,0,0,20.188,2.25Z" transform="translate(0 -2.25)" fill="#fff"/>
</svg>
