<svg xmlns="http://www.w3.org/2000/svg" width="108" height="169" viewBox="0 0 108 169">
  <g id="healthtrackrx-htrx-university-in-dotted-circle" transform="translate(-1522 -1794.935)">
    <g id="Ellipse_46" data-name="Ellipse 46" transform="translate(1522 1794.935)" fill="none" stroke="#fff" stroke-linecap="round" stroke-linejoin="round" stroke-width="3" stroke-dasharray="0.05 5">
      <circle cx="54" cy="54" r="54" stroke="none"/>
      <circle cx="54" cy="54" r="52.5" fill="none"/>
    </g>
    <line id="Line_38" data-name="Line 38" y2="56" transform="translate(1576 1906.435)" fill="none" stroke="#fff" stroke-linecap="round" stroke-width="3" stroke-dasharray="0.1 5"/>
    <g id="Group_4744" data-name="Group 4744" transform="translate(577.666 -816.593)">
      <path id="Path_7115" data-name="Path 7115" d="M31.721,0H24.609a.785.785,0,0,0-.785.785V8.492l6.992,6.993a1.578,1.578,0,0,1,0,2.233L17.369,31.164a1.579,1.579,0,0,1-2.233,0L1.69,17.717a1.578,1.578,0,0,1,0-2.233L8.682,8.492V.785A.785.785,0,0,0,7.9,0H.785A.785.785,0,0,0,0,.785V20.857C0,29.6,6.7,37.129,15.433,37.56A16.271,16.271,0,0,0,32.506,21.328V.785A.785.785,0,0,0,31.721,0" transform="translate(982.082 2646.738)" fill="#fff"/>
      <path id="Path_7116" data-name="Path 7116" d="M31.38,18.233l-8.014-8.014V22.208a1.118,1.118,0,1,1-2.237,0V7.982L19.692,6.546a1.469,1.469,0,0,0-2.078,0L5.927,18.233a1.47,1.47,0,0,0,0,2.078l4.42,4.42v-9.2a1.118,1.118,0,0,1,2.237,0V26.968l1.357,1.357V17.1a1.118,1.118,0,0,1,2.237,0V30.562L17.615,32a1.469,1.469,0,0,0,2.078,0l5.031-5.03V15.335a1.118,1.118,0,1,1,2.237,0v9.4l4.42-4.42a1.47,1.47,0,0,0,0-2.078M19.772,26.141a1.118,1.118,0,0,1-2.237,0V11.81a1.118,1.118,0,0,1,2.237,0Z" transform="translate(979.681 2644.067)" fill="#fff"/>
    </g>
  </g>
</svg>
