<svg id="LinkedIn_Icon_link" data-name="LinkedIn Icon link" xmlns="http://www.w3.org/2000/svg" width="22.611" height="22.611" viewBox="0 0 22.611 22.611">
  <path id="linkedin-icon" d="M19.263,19.268H15.915V14.022c0-1.251-.025-2.861-1.745-2.861-1.746,0-2.012,1.361-2.012,2.769v5.339H8.81V8.479h3.216V9.95h.043a3.529,3.529,0,0,1,3.175-1.743c3.393,0,4.02,2.233,4.02,5.139v5.922ZM5.028,7A1.945,1.945,0,1,1,6.973,5.057,1.943,1.943,0,0,1,5.028,7ZM6.707,19.268H3.349V8.479H6.707ZM20.939,0H1.668A1.648,1.648,0,0,0,0,1.629V20.982a1.648,1.648,0,0,0,1.668,1.629H20.936a1.654,1.654,0,0,0,1.675-1.629V1.629A1.655,1.655,0,0,0,20.936,0Z" fill="#fff"/>
</svg>
